<mxfile host="app.diagrams.net" modified="2022-11-09T14:00:14.050Z" agent="5.0 (Windows NT 10.0; Win64; x64) AppleWebKit/537.36 (KHTML, like Gecko) Chrome/107.0.0.0 Safari/537.36 Edg/107.0.1418.35" etag="BWMjNsAdIEFk44jFdRn7" version="20.1.1" type="github">
  <diagram id="yphX4xKqaYW0BlBW5Wfc" name="Page-1">
    <mxGraphModel dx="1550" dy="859" grid="1" gridSize="10" guides="1" tooltips="1" connect="1" arrows="1" fold="1" page="1" pageScale="1" pageWidth="827" pageHeight="1169" math="0" shadow="0">
      <root>
        <mxCell id="0" />
        <mxCell id="1" parent="0" />
        <mxCell id="rtN0075uIEMTSkTaX8qy-11" style="edgeStyle=orthogonalEdgeStyle;rounded=0;orthogonalLoop=1;jettySize=auto;html=1;entryX=0.805;entryY=0.027;entryDx=0;entryDy=0;entryPerimeter=0;" edge="1" parent="1" source="rtN0075uIEMTSkTaX8qy-1" target="rtN0075uIEMTSkTaX8qy-2">
          <mxGeometry relative="1" as="geometry" />
        </mxCell>
        <mxCell id="rtN0075uIEMTSkTaX8qy-12" style="edgeStyle=orthogonalEdgeStyle;rounded=0;orthogonalLoop=1;jettySize=auto;html=1;" edge="1" parent="1" source="rtN0075uIEMTSkTaX8qy-1">
          <mxGeometry relative="1" as="geometry">
            <mxPoint x="280" y="220" as="targetPoint" />
          </mxGeometry>
        </mxCell>
        <mxCell id="rtN0075uIEMTSkTaX8qy-13" style="edgeStyle=orthogonalEdgeStyle;rounded=0;orthogonalLoop=1;jettySize=auto;html=1;" edge="1" parent="1" source="rtN0075uIEMTSkTaX8qy-1" target="rtN0075uIEMTSkTaX8qy-14">
          <mxGeometry relative="1" as="geometry">
            <mxPoint x="470" y="140" as="targetPoint" />
          </mxGeometry>
        </mxCell>
        <mxCell id="rtN0075uIEMTSkTaX8qy-1" value="__RouteChatMsgToImct2" style="rounded=1;whiteSpace=wrap;html=1;" vertex="1" parent="1">
          <mxGeometry x="200" y="60" width="160" height="60" as="geometry" />
        </mxCell>
        <mxCell id="rtN0075uIEMTSkTaX8qy-2" value="RouteWithWrapHeadTrans" style="rounded=1;whiteSpace=wrap;html=1;" vertex="1" parent="1">
          <mxGeometry y="210" width="160" height="60" as="geometry" />
        </mxCell>
        <mxCell id="rtN0075uIEMTSkTaX8qy-3" value="__RouteAntiJunk" style="rounded=1;whiteSpace=wrap;html=1;" vertex="1" parent="1">
          <mxGeometry x="200" y="210" width="170" height="60" as="geometry" />
        </mxCell>
        <mxCell id="rtN0075uIEMTSkTaX8qy-4" value="发给antijunk_im_message" style="rounded=1;whiteSpace=wrap;html=1;" vertex="1" parent="1">
          <mxGeometry x="90" y="330" width="160" height="60" as="geometry" />
        </mxCell>
        <mxCell id="rtN0075uIEMTSkTaX8qy-5" value="发给antijunk" style="rounded=1;whiteSpace=wrap;html=1;" vertex="1" parent="1">
          <mxGeometry x="290" y="330" width="160" height="60" as="geometry" />
        </mxCell>
        <mxCell id="rtN0075uIEMTSkTaX8qy-6" value="" style="endArrow=classic;html=1;rounded=0;exitX=0.185;exitY=1.04;exitDx=0;exitDy=0;exitPerimeter=0;entryX=0.5;entryY=0;entryDx=0;entryDy=0;" edge="1" parent="1" source="rtN0075uIEMTSkTaX8qy-3" target="rtN0075uIEMTSkTaX8qy-4">
          <mxGeometry width="50" height="50" relative="1" as="geometry">
            <mxPoint x="210" y="320" as="sourcePoint" />
            <mxPoint x="170" y="320" as="targetPoint" />
          </mxGeometry>
        </mxCell>
        <mxCell id="rtN0075uIEMTSkTaX8qy-7" value="" style="endArrow=classic;html=1;rounded=0;entryX=0.25;entryY=0;entryDx=0;entryDy=0;exitX=0.615;exitY=1.027;exitDx=0;exitDy=0;exitPerimeter=0;" edge="1" parent="1" source="rtN0075uIEMTSkTaX8qy-3" target="rtN0075uIEMTSkTaX8qy-5">
          <mxGeometry width="50" height="50" relative="1" as="geometry">
            <mxPoint x="290" y="320" as="sourcePoint" />
            <mxPoint x="340" y="270" as="targetPoint" />
          </mxGeometry>
        </mxCell>
        <mxCell id="rtN0075uIEMTSkTaX8qy-8" value="发给antijunk" style="rounded=1;whiteSpace=wrap;html=1;" vertex="1" parent="1">
          <mxGeometry x="500" y="330" width="160" height="60" as="geometry" />
        </mxCell>
        <mxCell id="rtN0075uIEMTSkTaX8qy-15" value="Y" style="edgeStyle=orthogonalEdgeStyle;rounded=0;orthogonalLoop=1;jettySize=auto;html=1;exitX=0.5;exitY=1;exitDx=0;exitDy=0;entryX=0.33;entryY=-0.02;entryDx=0;entryDy=0;entryPerimeter=0;" edge="1" parent="1" source="rtN0075uIEMTSkTaX8qy-14" target="rtN0075uIEMTSkTaX8qy-8">
          <mxGeometry relative="1" as="geometry" />
        </mxCell>
        <mxCell id="rtN0075uIEMTSkTaX8qy-14" value="say_hello?" style="rhombus;whiteSpace=wrap;html=1;" vertex="1" parent="1">
          <mxGeometry x="440" y="190" width="80" height="80" as="geometry" />
        </mxCell>
      </root>
    </mxGraphModel>
  </diagram>
</mxfile>
